<?xml version="1.0" standalone="no"?>
<!DOCTYPE svg PUBLIC "-//W3C//DTD SVG 20010904//EN"
 "http://www.w3.org/TR/2001/REC-SVG-20010904/DTD/svg10.dtd">
<svg version="1.0" xmlns="http://www.w3.org/2000/svg"
 width="298.000000pt" height="298.000000pt" viewBox="0 0 298.000000 298.000000"
 preserveAspectRatio="xMidYMid meet">
<metadata>
Created by potrace 1.14, written by Peter Selinger 2001-2017
</metadata>
<g transform="translate(0.000000,298.000000) scale(0.100000,-0.100000)"
fill="#000000" stroke="none">
<path d="M2192 2968 c-105 -16 -215 -96 -261 -191 -112 -230 44 -498 298 -511
168 -9 307 90 361 259 38 116 -10 273 -109 361 -71 64 -188 97 -289 82z"/>
<path d="M665 2759 c-163 -30 -286 -168 -298 -332 -12 -156 73 -296 221 -368
37 -18 119 -57 182 -87 63 -30 151 -71 195 -92 44 -21 139 -66 210 -100 72
-34 166 -79 210 -100 44 -21 218 -103 388 -184 169 -80 326 -150 348 -156 58
-16 144 -10 209 13 260 93 326 427 123 619 -22 22 -280 158 -297 158 -2 0 -84
39 -182 86 -99 47 -206 99 -239 114 -95 44 -240 113 -380 180 -71 34 -166 79
-210 100 -44 21 -127 60 -185 87 -138 66 -203 79 -295 62z"/>
<path d="M557 1751 c-259 -84 -341 -408 -153 -605 49 -50 104 -79 681 -351 50
-23 140 -66 200 -95 61 -29 146 -69 190 -90 77 -36 124 -58 399 -189 158 -75
206 -90 282 -87 74 3 126 20 189 62 193 127 219 401 54 566 -47 47 -73 61
-349 191 -41 19 -138 65 -215 102 -77 37 -252 120 -390 185 -137 65 -313 148
-390 185 -194 93 -242 115 -284 129 -55 19 -149 18 -214 -3z"/>
<path d="M615 767 c-68 -17 -138 -62 -185 -120 -58 -71 -83 -140 -82 -226 3
-215 181 -374 390 -349 331 40 433 463 155 647 -77 51 -188 70 -278 48z"/>
</g>
</svg>
