<svg width="479" height="603" viewBox="0 0 479 603" fill="none" xmlns="http://www.w3.org/2000/svg">
<path d="M121.634 52.0587L427.327 197.227C452.923 209.382 469.247 235.238 469.247 263.64C469.247 317.599 413.195 353.14 364.58 330.054L58.8872 184.886C33.291 172.731 16.967 146.875 16.967 118.472C16.967 64.5141 73.0188 28.9723 121.634 52.0587Z" stroke="white" stroke-width="6"/>
<path d="M107.972 258.985L414.511 404.152C440.183 416.31 456.55 442.167 456.55 470.565C456.55 524.511 400.346 560.072 351.578 536.977L45.0382 391.809C19.3667 379.652 3 353.795 3 325.397C3 271.451 59.2039 235.89 107.972 258.985Z" stroke="white" stroke-width="6"/>
<path d="M404.964 144.259C365.956 144.259 334.334 112.637 334.334 73.6295C334.334 34.6219 365.956 3 404.964 3C443.972 3 475.593 34.6219 475.593 73.6295C475.593 112.637 443.972 144.259 404.964 144.259Z" stroke="white" stroke-width="6"/>
<path d="M83.7838 600C44.7762 600 13.1543 568.379 13.1543 529.371C13.1543 490.363 44.7762 458.741 83.7838 458.741C122.791 458.741 154.413 490.363 154.413 529.371C154.413 568.379 122.791 600 83.7838 600Z" stroke="white" stroke-width="6"/>
</svg>
