<svg fill="none" height="603" viewBox="0 0 479 603" width="479" xmlns="http://www.w3.org/2000/svg"><g stroke="#fff" stroke-width="6"><path d="m121.634 52.0587 305.693 145.1683c25.596 12.155 41.92 38.011 41.92 66.413 0 53.959-56.052 89.5-104.667 66.414l-305.6928-145.168c-25.5962-12.155-41.9202-38.011-41.9202-66.414 0-53.9579 56.0518-89.4997 104.667-66.4133z"/><path d="m107.972 258.985 306.539 145.167c25.672 12.158 42.039 38.015 42.039 66.413 0 53.946-56.204 89.507-104.972 66.412l-306.5398-145.168c-25.6715-12.157-42.0382-38.014-42.0382-66.412 0-53.946 56.2039-89.507 104.972-66.412z"/><path d="m404.964 144.259c-39.008 0-70.63-31.622-70.63-70.6295 0-39.0076 31.622-70.6295 70.63-70.6295s70.629 31.6219 70.629 70.6295c0 39.0075-31.621 70.6295-70.629 70.6295z"/><path d="m83.7838 600c-39.0076 0-70.6295-31.621-70.6295-70.629s31.6219-70.63 70.6295-70.63c39.0072 0 70.6292 31.622 70.6292 70.63s-31.622 70.629-70.6292 70.629z"/></g></svg>