<svg width="648" height="816" viewBox="0 0 648 816" fill="none" xmlns="http://www.w3.org/2000/svg">
<path d="M164.887 69.423L578.145 265.672C613.117 282.279 635.419 317.605 635.419 356.408C635.419 430.124 558.84 478.689 492.414 447.145L79.1556 250.896C44.1836 234.288 21.882 198.963 21.882 160.16C21.882 86.4436 98.4611 37.8786 164.887 69.423Z" stroke="#7EEEE7" stroke-opacity="0.08" stroke-width="6"/>
<path d="M146.416 349.16L560.819 545.408C595.892 562.018 618.253 597.345 618.253 636.144C618.253 709.848 541.465 758.432 474.837 726.879L60.4341 530.63C25.3609 514.02 3 478.694 3 439.895C3 366.191 79.7881 317.607 146.416 349.16Z" stroke="#7EEEE7" stroke-opacity="0.08" stroke-width="6"/>
<path d="M547.464 196.076C494.147 196.076 450.926 152.854 450.926 99.5378C450.926 46.2215 494.147 3 547.464 3C600.78 3 644.002 46.2215 644.002 99.5378C644.002 152.854 600.78 196.076 547.464 196.076Z" stroke="#7EEEE7" stroke-opacity="0.08" stroke-width="6"/>
<path d="M113.265 812.18C59.9484 812.18 16.727 768.959 16.727 715.642C16.727 662.326 59.9484 619.105 113.265 619.105C166.581 619.105 209.803 662.326 209.803 715.642C209.803 768.959 166.581 812.18 113.265 812.18Z" stroke="#7EEEE7" stroke-opacity="0.08" stroke-width="6"/>
</svg>
