<svg fill="none" height="816" viewBox="0 0 648 816" width="648" xmlns="http://www.w3.org/2000/svg"><g stroke="#7eeee7" stroke-opacity=".08" stroke-width="6"><path d="m164.887 69.423 413.258 196.249c34.972 16.607 57.274 51.933 57.274 90.736 0 73.716-76.579 122.281-143.005 90.737l-413.2584-196.249c-34.972-16.608-57.2736-51.933-57.2736-90.736 0-73.7164 76.5791-122.2814 143.005-90.737z"/><path d="m146.416 349.16 414.403 196.248c35.073 16.61 57.434 51.937 57.434 90.736 0 73.704-76.788 122.288-143.416 90.735l-414.4029-196.249c-35.0732-16.61-57.4341-51.936-57.4341-90.735 0-73.704 76.7881-122.288 143.416-90.735z"/><path d="m547.464 196.076c-53.317 0-96.538-43.222-96.538-96.5382 0-53.3163 43.221-96.5378 96.538-96.5378 53.316 0 96.538 43.2215 96.538 96.5378 0 53.3162-43.222 96.5382-96.538 96.5382z"/><path d="m113.265 812.18c-53.3166 0-96.538-43.221-96.538-96.538 0-53.316 43.2214-96.537 96.538-96.537 53.316 0 96.538 43.221 96.538 96.537 0 53.317-43.222 96.538-96.538 96.538z"/></g></svg>