<svg fill="none" height="559" viewBox="0 0 415 559" width="415" xmlns="http://www.w3.org/2000/svg" xmlns:xlink="http://www.w3.org/1999/xlink"><clipPath id="a"><path d="m0 0h415v559h-415z"/></clipPath><g clip-path="url(#a)" stroke="#fff" stroke-width="6"><path d="m16.9688 96.4728c0-53.9583 56.0517-89.50009 104.6672-66.4137l305.693 145.1679c25.596 12.155 41.92 38.011 41.92 66.414 0 53.958-56.052 89.5-104.667 66.413l-305.693-145.168c-25.5963-12.155-41.9202-38.01-41.9202-66.4132z"/><path d="m3 303.397c0-53.947 56.2039-89.508 104.972-66.413l306.539 145.168c25.672 12.157 42.039 38.014 42.039 66.413 0 53.946-56.204 89.507-104.972 66.412l-306.5398-145.168c-25.6715-12.157-42.0382-38.014-42.0382-66.412z"/><path d="m334.336 51.6295c0-39.0076 31.622-70.6295 70.629-70.6295 39.008 0 70.63 31.6219 70.63 70.6295s-31.622 70.6295-70.63 70.6295c-39.007 0-70.629-31.6219-70.629-70.6295z"/><path d="m13.1523 507.371c0-39.008 31.6219-70.63 70.6295-70.63 39.0072 0 70.6292 31.622 70.6292 70.63 0 39.007-31.622 70.629-70.6292 70.629-39.0076 0-70.6295-31.622-70.6295-70.629z"/></g></svg>