<svg fill="none" height="644" viewBox="0 0 497 644" width="497" xmlns="http://www.w3.org/2000/svg" xmlns:xlink="http://www.w3.org/1999/xlink"><linearGradient id="a" gradientUnits="userSpaceOnUse" x1="248.5" x2="248.5" y1="0" y2="644"><stop offset="0" stop-color="#292524"/><stop offset="1" stop-color="#4a4240"/></linearGradient><clipPath id="b"><path d="m0 0h497v644h-497z"/></clipPath><mask id="c" height="644" maskUnits="userSpaceOnUse" width="497" x="0" y="0"><path d="m461 0h-425c-19.8823 0-36 16.1177-36 36v572c0 19.882 16.1177 36 36 36h425c19.882 0 36-16.118 36-36v-572c0-19.8823-16.118-36-36-36z" fill="#d9d9d9"/></mask><g clip-path="url(#b)"><g mask="url(#c)"><path d="m497 0h-497v644h497z" fill="url(#a)"/><g stroke="#fff" stroke-width="3"><path d="m49.4062 160.156c0-48.758 50.7858-80.8964 94.8498-60.024l272.132 128.905c23.196 10.987 37.985 34.357 37.985 60.024 0 48.758-50.786 80.896-94.85 60.024l-272.1317-128.905c-23.1961-10.988-37.9851-34.357-37.9851-60.024z"/><path d="m37.5 343.831c0-48.758 50.7854-80.897 94.85-60.024l272.131 128.904c23.196 10.988 37.985 34.358 37.985 60.024 0 48.758-50.785 80.897-94.849 60.024l-272.132-128.904c-23.1961-10.988-37.985-34.357-37.985-60.024z"/><path d="m331.633 119.466c0-35.3274 28.638-63.966 63.966-63.966 35.327 0 63.966 28.6386 63.966 63.966 0 35.327-28.639 63.966-63.966 63.966-35.328 0-63.966-28.639-63.966-63.966z"/></g><path d="m67.0625 159.449c0-26.636 21.5926-48.229 48.2285-48.229 26.636 0 48.228 21.593 48.228 48.229 0 26.635-21.592 48.228-48.228 48.228-26.6359 0-48.2285-21.593-48.2285-48.228z" fill="#ff8e4f"/><path d="m327.008 471.707c0-26.635 21.592-48.228 48.228-48.228s48.229 21.593 48.229 48.228c0 26.636-21.593 48.229-48.229 48.229s-48.228-21.593-48.228-48.229z" fill="#ffe177"/><path d="m348.262 118.577c0-26.6358 21.592-48.2284 48.228-48.2284s48.229 21.5926 48.229 48.2284c0 26.636-21.593 48.228-48.229 48.228s-48.228-21.592-48.228-48.228z" fill="#72c456"/><path d="m62.1562 524.023c0-26.635 21.5928-48.228 48.2288-48.228s48.228 21.593 48.228 48.228c0 26.636-21.592 48.229-48.228 48.229s-48.2288-21.593-48.2288-48.229z" fill="#ff685f"/><path d="m45.9648 524.164c0-35.327 28.6386-63.966 63.9662-63.966 35.327 0 63.966 28.639 63.966 63.966 0 35.328-28.639 63.966-63.966 63.966-35.3276 0-63.9662-28.638-63.9662-63.966z" stroke="#fff" stroke-width="3"/></g></g></svg>