<svg fill="none" height="73" viewBox="0 0 73 73" width="73" xmlns="http://www.w3.org/2000/svg" xmlns:xlink="http://www.w3.org/1999/xlink"><clipPath id="a"><path d="m0 0h73v73h-73z"/></clipPath><mask id="b" height="73" maskUnits="userSpaceOnUse" width="73" x="0" y="0"><path d="m0 0h73v73h-73z" fill="#fff"/></mask><g clip-path="url(#a)"><g style="mask:url(#b);stroke:#a9a29d;stroke-width:3;stroke-miterlimit:10;stroke-linecap:round;stroke-linejoin:round"><path d="m57.5868 71.5742h-51.99271c-1.90227 0-3.45737-1.5599-3.45737-3.4595v-55.4252c0-1.8996 1.5551-3.45956 3.45737-3.45956h3.96211"/><path d="m20.1486 63.7656h-7.1368c-1.8982 0-3.45321-1.5559-3.45321-3.4595v-55.42125c0-1.90356 1.55501-3.45951 3.45321-3.45951h29.9687l14.6087 12.44776v26.2254m-8.5707 23.6671h-16.0707"/><path d="m57.5892 13.8735h-10.3638c-2.3345 0-4.2449-1.9075-4.2449-4.24352v-8.20423"/><path d="m18.3164 20.0449h30.5057"/><path d="m38.8824 27.2266h9.9397m-30.5057 0h10.5173"/><path d="m18.3164 34.4082h30.5057"/><path d="m28.3692 41.5903h11.7855m-21.8383 0h2.8717"/><path d="m18.3164 48.772h17.5611"/><path d="m18.3164 12.8594h17.5853"/><path d="m56.0222 70.9558c-3.4411-2.0571-6.2401-5.5329-8.3969-9.5581-2.1728-4.0537-3.3522-8.3336-3.3159-12.3711.0161-1.7904.4161-1.9884 1.9023-2.7887l11.3736-6.139 11.3734 6.139c1.4824.8003 1.8822.9983 1.8983 2.7887.0364 4.0375-1.1429 8.3174-3.3158 12.3711-2.1567 4.0252-4.9557 7.501-8.397 9.5581-1.3771.8246-1.7447.8246-3.122 0z"/><path d="m26.5391 63.7661h.0083"/><path d="m53.1445 55.6265 2.8918 2.7119 5.9938-6.1553"/></g></g></svg>