<svg fill="none" height="20" viewBox="0 0 116 20" width="116" xmlns="http://www.w3.org/2000/svg" xmlns:xlink="http://www.w3.org/1999/xlink"><clipPath id="a"><path d="m0 0h116v20h-116z"/></clipPath><mask id="b" height="20" maskUnits="userSpaceOnUse" width="116" x="0" y="0"><path d="m116 .5h-116v18.8889h116z" fill="#fff"/></mask><g clip-path="url(#a)"><g fill="#ffc266" mask="url(#b)"><path d="m9.07088 1.11234c.34374-.816455 1.51452-.816454 1.85822.00001l2.0288 4.81888c.145.3442.4727.57938.8488.60917l5.266.41708c.8922.07066 1.254 1.17065.5742 1.74592l-4.0121 3.3953c-.2866.2425-.4118.6231-.3242.9856l1.2257 5.0767c.2077.8601-.7394 1.54-1.5033 1.0791l-4.5085-2.7205c-.322-.1944-.727-.1944-1.04902 0l-4.50849 2.7205c-.76388.4609-1.71103-.219-1.50336-1.0791l1.22579-5.0767c.08756-.3625-.0376-.7431-.32416-.9856l-4.012198-3.3953c-.67978-.57527-.317994-1.67526.574229-1.74592l5.266069-.41708c.37614-.02979.7038-.26497.84871-.60917z"/><path d="m33.0709 1.11234c.3437-.816455 1.5145-.816454 1.8582.00001l2.0288 4.81888c.145.3442.4727.57938.8488.60917l5.266.41708c.8922.07066 1.254 1.17065.5742 1.74592l-4.0121 3.3953c-.2866.2425-.4118.6231-.3242.9856l1.2257 5.0767c.2077.8601-.7394 1.54-1.5033 1.0791l-4.5085-2.7205c-.322-.1944-.727-.1944-1.049 0l-4.5085 2.7205c-.7639.4609-1.711-.219-1.5034-1.0791l1.2258-5.0767c.0876-.3625-.0376-.7431-.3241-.9856l-4.0122-3.3953c-.6798-.57527-.318-1.67526.5742-1.74592l5.2661-.41708c.3761-.02979.7038-.26497.8487-.60917z"/><path d="m57.0709 1.11234c.3437-.816455 1.5145-.816454 1.8582.00001l2.0288 4.81888c.145.3442.4727.57938.8488.60917l5.266.41708c.8922.07066 1.254 1.17065.5742 1.74592l-4.0121 3.3953c-.2866.2425-.4118.6231-.3242.9856l1.2257 5.0767c.2077.8601-.7394 1.54-1.5033 1.0791l-4.5085-2.7205c-.322-.1944-.727-.1944-1.049 0l-4.5085 2.7205c-.7639.4609-1.711-.219-1.5034-1.0791l1.2258-5.0767c.0876-.3625-.0376-.7431-.3241-.9856l-4.0122-3.3953c-.6798-.57527-.318-1.67526.5742-1.74592l5.2661-.41708c.3761-.02979.7038-.26497.8487-.60917z"/><path d="m81.0709 1.11234c.3437-.816455 1.5145-.816454 1.8582.00001l2.0288 4.81888c.145.3442.4727.57938.8488.60917l5.266.41708c.8922.07066 1.254 1.17065.5742 1.74592l-4.0121 3.3953c-.2866.2425-.4118.6231-.3242.9856l1.2257 5.0767c.2077.8601-.7394 1.54-1.5033 1.0791l-4.5085-2.7205c-.322-.1944-.727-.1944-1.049 0l-4.5085 2.7205c-.7639.4609-1.711-.219-1.5034-1.0791l1.2258-5.0767c.0876-.3625-.0376-.7431-.3241-.9856l-4.0122-3.3953c-.6798-.57527-.318-1.67526.5742-1.74592l5.2661-.41708c.3761-.02979.7038-.26497.8487-.60917z"/><path d="m105.071 1.11234c.344-.816455 1.514-.816454 1.858.00001l2.029 4.81888c.145.3442.473.57938.849.60917l5.266.41708c.892.07066 1.254 1.17065.574 1.74592l-4.012 3.3953c-.287.2425-.412.6231-.324.9856l1.225 5.0767c.208.8601-.739 1.54-1.503 1.0791l-4.508-2.7205c-.323-.1944-.728-.1944-1.05 0l-4.508 2.7205c-.764.4609-1.711-.219-1.5034-1.0791l1.2254-5.0767c.088-.3625-.037-.7431-.324-.9856l-4.0119-3.3953c-.6798-.57527-.318-1.67526.5742-1.74592l5.2657-.41708c.376-.02979.704-.26497.849-.60917z"/></g></g></svg>