<svg width="497" height="644" viewBox="0 0 497 644" fill="none" xmlns="http://www.w3.org/2000/svg">
<g clip-path="url(#clip0_21_2)">
<mask id="mask0_21_2" style="mask-type:alpha" maskUnits="userSpaceOnUse" x="0" y="0" width="497" height="644">
<path d="M461 0H36C16.1177 0 0 16.1177 0 36V608C0 627.882 16.1177 644 36 644H461C480.882 644 497 627.882 497 608V36C497 16.1177 480.882 0 461 0Z" fill="#D9D9D9"/>
</mask>
<g mask="url(#mask0_21_2)">
<path d="M497 0H0V644H497V0Z" fill="url(#paint0_linear_21_2)"/>
<path d="M49.4062 160.156C49.4062 111.398 100.192 79.2596 144.256 100.132L416.388 229.037C439.584 240.024 454.373 263.394 454.373 289.061C454.373 337.819 403.587 369.957 359.523 349.085L87.3913 220.18C64.1952 209.192 49.4062 185.823 49.4062 160.156Z" stroke="white" stroke-width="3"/>
<path d="M37.5 343.831C37.5 295.073 88.2854 262.934 132.35 283.807L404.481 412.711C427.677 423.699 442.466 447.069 442.466 472.735C442.466 521.493 391.681 553.632 347.617 532.759L75.485 403.855C52.2889 392.867 37.5 369.498 37.5 343.831Z" stroke="white" stroke-width="3"/>
<path d="M331.633 119.466C331.633 84.1386 360.271 55.5 395.599 55.5C430.926 55.5 459.565 84.1386 459.565 119.466C459.565 154.793 430.926 183.432 395.599 183.432C360.271 183.432 331.633 154.793 331.633 119.466Z" stroke="white" stroke-width="3"/>
<path d="M67.0625 159.449C67.0625 132.813 88.6551 111.22 115.291 111.22C141.927 111.22 163.519 132.813 163.519 159.449C163.519 186.084 141.927 207.677 115.291 207.677C88.6551 207.677 67.0625 186.084 67.0625 159.449Z" fill="#FF8E4F"/>
<path d="M327.008 471.707C327.008 445.072 348.6 423.479 375.236 423.479C401.872 423.479 423.465 445.072 423.465 471.707C423.465 498.343 401.872 519.936 375.236 519.936C348.6 519.936 327.008 498.343 327.008 471.707Z" fill="#FFE177"/>
<path d="M348.262 118.577C348.262 91.9412 369.854 70.3486 396.49 70.3486C423.126 70.3486 444.719 91.9412 444.719 118.577C444.719 145.213 423.126 166.805 396.49 166.805C369.854 166.805 348.262 145.213 348.262 118.577Z" fill="#72C456"/>
<path d="M62.1562 524.023C62.1562 497.388 83.749 475.795 110.385 475.795C137.021 475.795 158.613 497.388 158.613 524.023C158.613 550.659 137.021 572.252 110.385 572.252C83.749 572.252 62.1562 550.659 62.1562 524.023Z" fill="#FF685F"/>
<path d="M45.9648 524.164C45.9648 488.837 74.6034 460.198 109.931 460.198C145.258 460.198 173.897 488.837 173.897 524.164C173.897 559.492 145.258 588.13 109.931 588.13C74.6034 588.13 45.9648 559.492 45.9648 524.164Z" stroke="white" stroke-width="3"/>
</g>
</g>
<defs>
<linearGradient id="paint0_linear_21_2" x1="248.5" y1="0" x2="248.5" y2="644" gradientUnits="userSpaceOnUse">
<stop stop-color="#292524"/>
<stop offset="1" stop-color="#4A4240"/>
</linearGradient>
<clipPath id="clip0_21_2">
<rect width="497" height="644" fill="white"/>
</clipPath>
</defs>
</svg>
