<svg width="415" height="559" viewBox="0 0 415 559" fill="none" xmlns="http://www.w3.org/2000/svg">
<g clip-path="url(#clip0_22_16)">
<path d="M16.9688 96.4728C16.9688 42.5145 73.0205 6.97271 121.636 30.0591L427.329 175.227C452.925 187.382 469.249 213.238 469.249 241.641C469.249 295.599 413.197 331.141 364.582 308.054L58.889 162.886C33.2927 150.731 16.9688 124.876 16.9688 96.4728Z" stroke="white" stroke-width="6"/>
<path d="M3 303.397C3 249.45 59.2039 213.889 107.972 236.984L414.511 382.152C440.183 394.309 456.55 420.166 456.55 448.565C456.55 502.511 400.346 538.072 351.578 514.977L45.0382 369.809C19.3667 357.652 3 331.795 3 303.397Z" stroke="white" stroke-width="6"/>
<path d="M334.336 51.6295C334.336 12.6219 365.958 -19 404.965 -19C443.973 -19 475.595 12.6219 475.595 51.6295C475.595 90.6371 443.973 122.259 404.965 122.259C365.958 122.259 334.336 90.6371 334.336 51.6295Z" stroke="white" stroke-width="6"/>
<path d="M13.1523 507.371C13.1523 468.363 44.7742 436.741 83.7818 436.741C122.789 436.741 154.411 468.363 154.411 507.371C154.411 546.378 122.789 578 83.7818 578C44.7742 578 13.1523 546.378 13.1523 507.371Z" stroke="white" stroke-width="6"/>
</g>
<defs>
<clipPath id="clip0_22_16">
<rect width="415" height="559" fill="white"/>
</clipPath>
</defs>
</svg>
